<svg width="144" height="127" viewBox="0 0 144 127" fill="none" xmlns="http://www.w3.org/2000/svg">
<path d="M105.177 -6.10352e-05C106.285 1.63473 107.308 3.33572 108.518 4.89135C111.602 8.85708 113.592 13.3122 114.81 18.1569C115.156 19.5296 115.668 20.8601 116.104 22.2101C116.421 23.1955 116.42 23.1661 115.36 23.2114C114.6 23.2439 113.846 23.3897 113.086 23.4378C112.918 23.4484 112.66 23.3054 112.573 23.1571C109.602 18.0529 106.461 13.0285 105.249 7.11438C104.974 5.77353 104.553 4.45972 104.145 3.15011C103.766 1.93088 104.065 0.910978 104.897 -6.0462e-05C104.99 -6.0462e-05 105.084 -6.0462e-05 105.177 -6.10352e-05ZM105.162 1.36492C105.022 1.70931 104.913 1.9048 104.863 2.11439C104.691 2.83645 104.988 3.43564 105.4 3.99446C107.196 6.43146 108.988 8.8714 110.8 11.2957C110.982 11.5393 111.296 11.6844 111.549 11.8752C111.531 11.5146 111.526 11.1527 111.488 10.7942C111.477 10.6906 111.372 10.5961 111.308 10.4992C109.426 7.66833 107.545 4.83722 105.661 2.00825C105.54 1.82656 105.393 1.66182 105.162 1.36492Z" fill="white"/>
<path d="M26.2554 65.2807C27.5378 64.6383 28.7744 64.1497 30.1091 64.1122C33.4952 64.017 36.7297 63.124 39.97 62.2925C49.0123 59.9722 57.8349 56.9446 66.6061 53.7797C74.2406 51.0249 81.8143 48.1018 89.4133 45.2487C89.6584 45.1567 89.8856 45.0171 90.2339 44.8435C89.9891 44.7045 89.8827 44.5933 89.7723 44.5891C88.5175 44.5416 87.2455 44.3709 86.0118 44.5173C84.951 44.6431 83.8897 45.038 82.9043 45.482C75.368 48.8774 67.6718 51.8551 59.8303 54.4649C58.9688 54.7516 58.2596 54.7027 57.6074 54.0151C57.2744 53.664 56.8088 53.4391 56.4727 53.0902C55.8343 52.4274 55.1923 52.4746 54.3949 52.8144C50.8854 54.3104 47.3541 55.7553 43.8306 57.2184C40.1571 58.7438 36.4805 60.262 32.8136 61.8032C32.3648 61.9918 32.1674 61.8569 32.0267 61.4538C31.8258 60.879 32.0347 60.365 32.6795 60.014C33.497 59.5692 34.3344 59.161 35.1601 58.731C35.3568 58.6285 35.541 58.5019 35.7171 58.2016C35.5172 58.1653 35.3144 58.0858 35.1178 58.0991C31.9977 58.31 29.4255 56.9796 26.9988 55.2328C26.5264 54.8928 26.0644 54.5369 25.5784 54.2176C24.8746 53.7552 24.1148 53.6339 23.3172 53.959C22.7105 54.2062 22.6449 54.4468 23.0918 54.9329C24.2112 56.1502 25.3483 57.3511 26.4784 58.5586C27.5925 59.7491 28.7075 60.939 29.82 62.1311C29.975 62.2971 30.1181 62.4742 30.2672 62.6468C29.3914 63.3772 28.7349 63.3272 27.858 62.4901C25.3308 60.0776 22.7891 57.6797 20.2938 55.2345C19.7098 54.6623 19.2314 54.5869 18.5208 54.9665C17.4615 55.5324 16.3468 55.9948 15.2587 56.4999C14.6688 55.2836 15.0924 53.8966 16.1602 53.3371C17.6648 52.5488 19.1689 51.7596 20.6712 50.967C20.856 50.8694 21.0844 50.7871 21.1934 50.6293C21.3431 50.4123 21.3981 50.13 21.4937 49.8757C21.2503 49.8706 20.9663 49.7805 20.7704 49.8744C19.6794 50.3972 18.6137 50.9725 17.5291 51.5091C17.3405 51.6024 17.0205 51.6996 16.9088 51.6103C16.7701 51.4994 16.6942 51.1672 16.7536 50.9829C16.8531 50.6746 17.0129 50.2901 17.2665 50.1431C18.5933 49.3741 19.9346 48.6218 21.315 47.9551C22.9567 47.1622 24.5341 47.4294 25.9821 48.4961C28.0259 50.0016 30.032 51.5601 32.1096 53.0171C33.2283 53.8017 34.4449 54.4543 35.6492 55.1075C36.8556 55.7617 38.1171 55.7306 39.3467 55.1498C42.355 53.7288 45.3726 52.3256 48.3516 50.8451C51.1434 49.4575 53.8934 47.9854 56.6537 46.535C57.0189 46.3431 57.3754 46.0973 57.6577 45.8016C57.7903 45.6627 57.7368 45.3462 57.7677 45.1102C57.5595 45.123 57.3228 45.0751 57.1475 45.1577C54.1585 46.565 51.1788 47.992 48.1914 49.4024C47.9096 49.5354 47.5594 49.8885 47.2965 49.4002C47.0593 48.9598 47.1286 48.5182 47.5826 48.2437C48.2193 47.8586 48.88 47.5132 49.5311 47.1518C50.1955 46.7831 50.2171 46.6294 49.6773 46.0728C49.5638 45.9558 49.4327 45.8532 49.3329 45.7258C48.9567 45.2459 48.5615 45.2 47.9999 45.4838C45.0926 46.953 42.1655 48.3829 39.2442 49.8244C39.0842 49.9034 38.9148 49.9635 38.7388 50.037C38.4247 48.2336 39.4278 46.0817 40.9254 45.2897C43.312 44.0275 45.6994 42.7669 48.0904 41.5131C48.6494 41.22 49.0334 40.8209 48.9895 40.1498C48.9511 39.563 48.705 39.4149 48.1722 39.6527C47.3436 40.0224 46.5145 40.3928 45.7014 40.7948C45.2091 41.0381 44.8474 40.9674 44.4662 40.5615C43.2865 39.3051 42.076 38.0777 40.8789 36.8376C40.306 36.2441 40.3131 36.0915 40.9068 35.529C43.3343 33.2292 46.2724 32.6596 49.4616 33.0836C57.6022 34.1658 65.7405 35.2664 73.8748 36.3947C78.9206 37.0946 83.9577 37.8574 88.9983 38.5949C90.1786 38.7677 90.4677 39.2513 89.9396 40.3094C89.6303 40.9292 89.8246 41.1785 90.4087 41.3791C91.376 41.7113 92.3093 42.1539 93.2909 42.4289C93.7863 42.5677 94.4155 42.5934 94.8832 42.4111C99.9503 40.4358 104.738 37.8955 109.366 35.0554C110.043 34.6404 110.527 34.6178 111.069 35.2046C111.3 35.4543 111.61 35.6854 111.928 35.7821C112.163 35.8537 112.516 35.7607 112.723 35.6114C112.832 35.5334 112.824 35.1258 112.723 34.9516C110.662 31.3969 109.039 27.6425 107.619 23.7959C107.32 22.9846 106.671 22.7604 105.949 22.8309C104.519 22.9704 103.061 23.0671 101.682 23.4358C96.9687 24.6959 92.4894 26.599 88.1075 28.7165C84.568 30.4269 81.0827 32.2494 77.5747 34.0248C77.4513 34.0872 77.2719 34.155 77.2378 34.2593C76.9655 35.0914 76.3191 34.8379 75.7518 34.7878C73.1317 34.5564 70.5127 34.3136 67.8925 34.0829C67.3787 34.0377 67.1854 33.8697 67.2605 33.2809C67.4692 31.6441 68.2486 30.4638 69.6207 29.5256C72.5882 27.4964 75.6454 25.6599 78.9569 24.2314C81.0856 23.3132 83.1045 23.3061 85.11 24.444C87.1088 25.578 89.1715 25.5585 91.3245 24.9698C95.8542 23.7311 100.395 22.5338 104.939 21.3461C105.677 21.153 106.447 21.0376 107.209 20.9873C109.4 20.8426 110.508 21.489 111.409 23.4822C112.577 26.0683 113.71 28.6714 114.817 31.2843C115.206 32.2003 115.539 33.1504 115.786 34.1135C116.246 35.9111 115.596 37.3482 114.192 38.4969C112.14 40.1765 109.815 41.4054 107.457 42.5779C98.7285 46.92 89.6257 50.3044 80.335 53.2238C64.3609 58.2434 48.4024 63.3121 32.437 68.3591C32.1936 68.436 31.947 68.5039 31.6995 68.5666C31.1496 68.706 30.7429 68.5397 30.5031 68.0053C30.3985 67.7722 30.2476 67.5579 30.1606 67.3194C29.9834 66.8334 29.6919 66.7686 29.231 66.9476C28.1797 67.356 27.9152 67.2676 27.1923 66.392C26.913 66.0537 26.6269 65.7209 26.2554 65.2807ZM49.3641 34.1865C49.2826 34.223 49.0716 34.3177 48.8605 34.4123C49.0685 34.5506 49.2751 34.6912 49.486 34.825C49.522 34.8478 49.577 34.8394 49.6227 34.8487C61.1779 37.1856 72.7371 39.5039 84.2839 41.8816C85.9164 42.2178 87.1012 41.7335 88.0948 40.5167C88.6291 39.8624 88.5414 39.6372 87.6892 39.514C85.571 39.2078 83.4504 38.9176 81.3307 38.6224C77.1609 38.0415 72.9914 37.4592 68.8211 36.8819C64.8809 36.3365 60.9397 35.7987 56.9994 35.2538C54.5106 34.9096 52.0228 34.5584 49.3641 34.1865ZM81.5827 27.4093C81.5684 27.3358 81.554 27.2623 81.5396 27.1888C80.1937 26.7162 78.8526 26.2916 77.3755 26.7189C74.9917 27.4084 72.9109 28.6423 70.9905 30.1772C70.8569 30.284 70.773 30.4531 70.5629 30.7282C71.8106 30.8471 72.8652 30.9711 73.9234 31.0334C74.2249 31.0512 74.5622 30.9407 74.8401 30.8025C76.8531 29.801 78.8549 28.7769 80.8609 27.7611C81.0997 27.6402 81.342 27.5264 81.5827 27.4093ZM79.9619 25.2161C80.1978 25.346 80.3451 25.4474 80.5068 25.5129C81.4332 25.8883 82.3714 26.2359 83.2864 26.6369C83.5555 26.7548 83.762 27.0155 83.9972 27.2107C83.7778 27.4498 83.5946 27.7437 83.3317 27.9163C82.7888 28.2727 82.1805 28.5315 81.65 28.903C81.4955 29.0113 81.403 29.4178 81.4851 29.5916C81.5586 29.7471 81.9786 29.9062 82.1313 29.8311C83.7591 29.0308 85.3713 28.1976 86.971 27.342C87.4507 27.0854 87.4457 26.7466 86.9564 26.5379C85.4174 25.8816 83.8757 25.2238 82.3014 24.6608C81.505 24.376 80.7225 24.6361 79.9619 25.2161Z" fill="white"/>
<path d="M118.807 28.5161C119.016 28.8539 119.145 29.0432 119.255 29.2424C120.724 31.8845 122.153 34.5493 123.669 37.1637C124.73 38.9948 125.409 40.9581 125.986 42.9728C126.695 45.4515 127.454 47.9172 128.091 50.4141C128.238 50.9897 128.087 51.7075 127.88 52.2916C127.572 53.1619 126.927 53.2059 126.396 52.4434C125.598 51.2985 124.838 50.1275 124.063 48.9672C122.939 47.2849 121.766 45.6324 120.709 43.9083C120.071 42.8673 119.484 41.7582 119.103 40.6041C118.12 37.6273 117.273 34.6059 116.348 31.6094C116.208 31.1545 116.265 30.9298 116.705 30.6683C117.17 30.3922 117.537 29.9441 117.924 29.5484C118.211 29.255 118.46 28.9252 118.807 28.5161ZM120.714 41.2896C120.286 41.8231 120.498 42.2364 120.757 42.6288C122.704 45.577 124.655 48.5224 126.613 51.4632C126.692 51.582 126.901 51.7452 126.968 51.7139C127.108 51.6484 127.235 51.4827 127.295 51.3297C127.55 50.6745 127.328 50.0926 126.942 49.5658C124.989 46.905 123.029 44.2493 121.067 41.595C120.99 41.4912 120.868 41.4209 120.714 41.2896Z" fill="white"/>
<path d="M81.259 35.2975C81.5449 35.1687 81.7616 35.0617 81.9851 34.9717C86.212 33.2695 90.4451 31.5828 94.6611 29.8544C95.2922 29.5957 95.6743 29.6717 96.0821 30.2131C96.6413 30.9555 97.2646 31.6517 97.8886 32.3422C98.198 32.6846 98.2553 32.9871 98.0289 33.4033C97.2732 34.7925 96.5378 36.193 95.8131 37.5988C95.6015 38.0092 95.321 38.1866 94.8606 38.0955C90.4143 37.2155 85.9671 36.3401 81.5209 35.46C81.4604 35.448 81.4086 35.3922 81.259 35.2975Z" fill="white"/>
<path d="M97.4181 28.6576C97.6535 28.5138 97.785 28.4217 97.9264 28.3488C98.8282 27.8838 98.8267 27.887 99.4475 28.6621C99.823 29.131 100.207 29.5935 100.729 30.2337C101.282 28.3948 101.788 26.7115 102.294 25.0281C102.352 25.0328 102.41 25.0374 102.469 25.042C102.469 25.306 102.49 25.572 102.465 25.8337C102.31 27.4981 102.165 29.164 101.973 30.8242C101.905 31.4138 101.958 31.9094 102.368 32.3751C102.889 32.9681 103.38 33.5908 103.84 34.2326C104 34.455 104.179 34.8574 104.083 35.0298C103.86 35.4319 102.942 35.5492 102.664 35.2676C102.389 34.989 102.186 34.6408 101.922 34.35C101.794 34.2096 101.602 34.0607 101.432 34.0509C101.332 34.0451 101.145 34.2921 101.118 34.4465C100.751 36.5381 99.2624 37.407 97.3092 37.9179C97.4455 37.6874 97.5581 37.5264 97.6413 37.3513C98.4074 35.7393 99.1875 34.1332 99.9084 32.501C100.006 32.2792 99.8811 31.8653 99.7201 31.6397C99.1535 30.8457 98.5254 30.0956 97.9227 29.3273C97.7685 29.1308 97.6218 28.9285 97.4181 28.6576Z" fill="white"/>
<path d="M116.009 23.7432C117.119 23.8455 118.235 23.9009 119.336 24.0655C120.145 24.1866 120.291 24.5444 119.956 25.309C119.199 27.0363 118.134 28.5537 116.77 29.856C116.216 30.3852 115.868 30.3336 115.54 29.6321C114.813 28.073 114.105 26.5041 113.428 24.9225C113.106 24.1705 113.311 23.8739 114.115 23.8352C114.743 23.8051 115.373 23.8292 116.002 23.8292C116.004 23.8005 116.006 23.7719 116.009 23.7432ZM119.16 24.9397C119.158 24.8589 119.155 24.778 119.153 24.6972C118.943 24.6417 118.736 24.5487 118.524 24.5373C117.642 24.4898 116.759 24.4464 115.877 24.4391C113.533 24.4196 113.932 24.5055 114.715 26.3702C114.849 26.6916 115.03 26.7746 115.367 26.6201C116.169 26.2515 116.987 25.9188 117.795 25.5643C118.254 25.3635 118.705 25.1484 119.16 24.9397Z" fill="white"/>
<path d="M-6.00287e-05 93.4167C0.0553631 93.2937 0.126894 93.1753 0.16379 93.0469C0.714184 91.132 2.2342 89.9564 4.22375 89.9383C5.94673 89.9227 7.67021 89.9101 9.39286 89.9363C10.063 89.9465 10.3923 89.7156 10.5529 89.0355C11.2955 85.8915 12.1222 82.7673 12.8514 79.6204C13.8392 75.3577 16.6614 72.9931 20.7216 71.9083C23.2219 71.2402 25.7436 71.2034 28.2199 72.0407C31.5613 73.1707 32.8838 75.5321 32.0384 78.9541C30.1207 86.7165 28.1583 94.4678 26.2187 102.225C26.1459 102.516 26.107 102.818 26.0779 103.118C26.0278 103.633 26.1996 104.044 26.7182 104.227C27.1235 104.37 27.1665 104.649 27.0679 105.005C27.0369 105.117 27.001 105.227 26.968 105.339C26.7589 106.046 26.7564 107.024 26.2834 107.384C25.8023 107.751 24.8562 107.549 24.1162 107.524C23.3765 107.498 22.6162 107.474 21.9064 107.29C19.9615 106.785 19.0427 105.126 19.5415 102.974C20.1504 100.348 20.8394 97.7407 21.4998 95.1266C21.7352 94.1948 21.6973 94.1323 20.7323 94.1296C19.3352 94.1256 17.9373 94.1539 16.5411 94.1172C15.9388 94.1013 15.6627 94.3305 15.5209 94.9012C14.5454 98.8262 13.5367 102.743 12.5721 106.67C12.4182 107.297 12.1637 107.568 11.4913 107.551C9.88559 107.51 8.27812 107.539 6.67136 107.535C6.46832 107.534 6.26538 107.501 5.95247 107.474C6.15323 106.645 6.33222 105.883 6.52295 105.123C7.3664 101.765 8.21446 98.4078 9.05791 95.0493C9.25164 94.2779 9.15073 94.1356 8.34844 94.133C5.85705 94.1249 3.36559 94.1361 0.874223 94.1248C0.582574 94.1234 0.291356 94.0278 -6.10352e-05 93.9759C-6.10352e-05 93.7895 -6.10352e-05 93.6031 -6.00287e-05 93.4167ZM19.6316 89.9804C20.3065 89.9804 20.9835 89.9464 21.6556 89.9895C22.3919 90.0366 22.7765 89.714 22.9493 89.02C23.1904 88.0515 23.484 87.096 23.7283 86.1282C24.4331 83.3363 25.1368 80.5439 25.8143 77.7452C26.0408 76.8095 25.8915 75.9162 25.134 75.2496C24.3558 74.5649 23.4363 74.54 22.5104 74.8949C21.2693 75.3707 20.3363 76.2301 19.988 77.5135C18.9238 81.4361 17.9326 85.3785 16.9112 89.3127C16.7846 89.8006 16.9599 90.0023 17.4676 89.9866C18.1883 89.9644 18.9102 89.981 19.6316 89.9804Z" fill="white"/>
<path d="M143.141 83.0723C142.855 84.019 142.553 84.961 142.288 85.9136C142.021 86.8762 141.78 87.8467 141.549 88.8191C141.435 89.3007 141.202 89.5161 140.674 89.4896C139.819 89.4466 138.959 89.478 137.92 89.478C138.142 88.4168 138.345 87.4453 138.581 86.3152C138.225 86.4299 137.99 86.4736 137.785 86.5769C134.751 88.1032 132.7 90.4864 131.81 93.7608C130.67 97.9554 129.638 102.179 128.565 106.391C128.285 107.488 128.255 107.521 127.105 107.524C125.638 107.528 124.171 107.533 122.704 107.534C121.888 107.534 121.817 107.477 122.008 106.706C122.723 103.818 123.467 100.938 124.193 98.0525C125.399 93.2502 126.611 88.4491 127.79 83.64C127.962 82.9403 128.234 82.6304 129.007 82.6597C130.612 82.7203 132.221 82.6853 133.828 82.6681C134.361 82.6624 134.567 82.8237 134.379 83.3741C134.264 83.7139 134.219 84.078 134.1 84.628C134.491 84.4446 134.712 84.3592 134.915 84.243C137.484 82.7732 140.256 82.4647 143.141 82.7928C143.141 82.886 143.141 82.9791 143.141 83.0723Z" fill="white"/>
<path d="M59.1296 126.406C58.8711 126.306 58.6039 126.224 58.3559 126.102C57.6307 125.746 57.234 125.002 57.3615 124.274C57.492 123.529 58.0878 122.965 58.9285 122.932C60.2063 122.882 61.487 122.899 62.7664 122.899C69.793 122.896 76.8196 122.889 83.8462 122.904C85.3241 122.907 86.1921 124.013 85.5945 125.214C85.3404 125.724 84.6458 126.015 84.1514 126.406C75.8108 126.406 67.4702 126.406 59.1296 126.406Z" fill="white"/>
<path d="M64.3486 82.7251C64.0662 83.8841 63.809 84.9626 63.5405 86.0382C62.2398 91.2492 60.9404 96.4606 59.6299 101.669C59.339 102.825 59.486 103.72 60.7192 104.263C60.8857 104.336 61.0451 104.711 61.0082 104.91C60.8724 105.64 60.6721 106.36 60.4509 107.07C60.3954 107.248 60.178 107.496 60.0239 107.505C58.2868 107.598 56.5687 107.515 55.0247 106.576C53.3084 105.534 52.6047 103.781 53.1101 101.753C54.2852 97.0387 55.4913 92.3316 56.6625 87.6158C57.1101 85.8132 57.2463 85.9616 55.3941 85.9657C55.2078 85.9662 55.0213 85.9797 54.8352 85.9752C53.1374 85.9345 53.3149 85.7541 52.8539 87.5556C52.0588 90.6629 51.458 93.8403 50.3968 96.855C48.3604 102.64 44.1487 106.18 38.1627 107.422C36.4136 107.785 34.5436 107.569 32.7288 107.609C31.9837 107.625 31.2376 107.6 30.4928 107.621C29.9067 107.638 29.7101 107.465 29.8686 106.836C31.0382 102.192 32.1969 97.5445 33.32 92.8888C34.0665 89.7938 34.764 86.6867 35.4465 83.5769C35.5849 82.9462 35.8308 82.6566 36.5086 82.6693C38.2317 82.7014 39.9559 82.6755 41.6796 82.677C41.8829 82.6772 42.0862 82.7037 42.413 82.7266C42.2695 83.3748 42.1566 83.9574 42.0112 84.5317C40.3955 90.9096 38.7744 97.286 37.156 103.663C36.9696 104.398 37.0274 104.456 37.8095 104.361C40.3989 104.043 42.7911 101.806 43.4753 99.0318C44.7002 94.0652 45.9115 89.0953 47.1313 84.1275C47.2033 83.8345 47.3099 83.5501 47.3835 83.2575C47.4916 82.8282 47.7536 82.6681 48.196 82.6689C53.414 82.6784 58.632 82.6754 63.85 82.6775C63.9634 82.6775 64.0767 82.6984 64.3486 82.7251Z" fill="white"/>
<path d="M82.4965 82.6736C84.3128 82.6736 86.1291 82.6728 87.9454 82.674C88.7017 82.6745 88.754 82.74 88.57 83.4743C87.0229 89.6511 85.4747 95.8277 83.9261 102.004C83.5538 103.489 83.6361 103.655 84.9847 104.343C85.1199 104.411 85.2729 104.667 85.2446 104.799C85.0693 105.616 84.858 106.426 84.6221 107.228C84.5847 107.356 84.3609 107.516 84.2266 107.513C82.9727 107.485 81.7127 107.488 80.4684 107.354C79.5034 107.25 78.6431 106.799 78.0119 106.018C77.7394 105.681 77.4899 105.63 77.1319 105.906C74.9226 107.612 72.3778 107.73 69.749 107.444C68.3745 107.295 67.1346 106.823 66.0389 105.97C64.486 104.762 63.8744 103.156 64.2984 101.274C65.1516 97.4892 66.0843 93.7212 67.0329 89.9584C67.9535 86.307 70.5666 84.2945 73.9753 83.2684C75.3956 82.8409 76.9467 82.7984 78.4461 82.6981C79.7906 82.6082 81.146 82.6792 82.4965 82.6792C82.4965 82.6773 82.4965 82.6755 82.4965 82.6736ZM73.1109 104.401C75.0853 104.392 77.0755 102.834 77.7307 100.726C77.9303 100.084 78.0537 99.4176 78.2159 98.7634C79.1946 94.8156 80.1749 90.8683 81.1534 86.9205C81.3631 86.0745 81.2817 85.9725 80.4432 85.9728C79.3023 85.9732 78.1613 85.9732 77.0204 85.9625C75.3387 85.9467 74.4975 86.4891 74.0657 88.1353C72.8746 92.6768 71.7305 97.2308 70.6036 101.789C70.2958 103.034 70.9071 103.938 72.1489 104.254C72.4618 104.334 72.7898 104.354 73.1109 104.401Z" fill="white"/>
<path d="M108.461 107.523C107.194 107.594 105.803 107.492 104.494 106.927C102.674 106.141 101.196 104.99 101.035 102.849C100.968 101.946 101.161 100.998 101.374 100.103C102.13 96.9163 103.028 93.7611 103.716 90.5601C104.566 86.5984 107.195 84.4355 110.802 83.2158C113.275 82.3795 115.804 82.4741 118.304 83.1249C120.765 83.7656 123.023 86.1161 122.168 89.5593C121.271 93.1676 120.418 96.7881 119.443 100.375C118.311 104.534 115.14 106.403 111.242 107.36C110.817 107.465 110.368 107.491 109.928 107.517C109.488 107.543 109.044 107.523 108.461 107.523ZM115.895 88.3772C115.815 87.4722 115.675 86.6492 114.79 86.2184C113.838 85.7559 112.981 86.049 112.197 86.6632C112.106 86.7346 112.025 86.82 111.941 86.8994C111.11 87.6774 110.683 88.6781 110.412 89.7496C109.499 93.3523 108.578 96.9533 107.719 100.569C107.547 101.295 107.526 102.096 107.624 102.837C107.776 103.98 108.885 104.667 109.962 104.269C110.609 104.03 111.307 103.626 111.709 103.091C112.266 102.35 112.706 101.454 112.95 100.557C113.724 97.7122 114.39 94.8376 115.084 91.9709C115.373 90.7774 115.626 89.5753 115.895 88.3772Z" fill="white"/>
<path d="M103.79 82.6786C103.524 83.7523 103.315 84.6993 103.035 85.6245C102.986 85.7879 102.644 85.9374 102.424 85.9596C101.94 86.0083 101.445 86.0034 100.959 85.9614C100.382 85.9115 100.114 86.1662 99.9789 86.7054C98.7092 91.7794 97.4176 96.848 96.1549 101.924C95.8533 103.137 96.2062 103.716 97.3315 104.237C97.5003 104.315 97.6654 104.676 97.6303 104.87C97.4981 105.6 97.3066 106.322 97.0823 107.03C97.02 107.226 96.7703 107.5 96.6016 107.504C95.4858 107.528 94.3471 107.62 93.256 107.443C90.2903 106.961 88.9803 104.892 89.7088 101.795C90.7253 97.4736 91.8431 93.1762 92.9174 88.8687C93.0918 88.1693 93.2407 87.4624 93.4473 86.7727C93.6204 86.195 93.4847 85.9343 92.8498 85.9628C92.2689 85.9888 91.6856 85.9577 91.1036 85.9661C90.6283 85.9729 90.4008 85.8264 90.5471 85.2954C90.7259 84.6461 90.8785 83.9871 90.9956 83.324C91.0802 82.8451 91.3019 82.6483 91.795 82.6724C92.4456 82.7043 93.1011 82.647 93.7505 82.6892C94.3169 82.726 94.5331 82.4621 94.6431 81.9536C94.9575 80.4998 95.3183 79.056 95.6262 77.6009C95.7305 77.1081 95.9367 76.8937 96.465 76.9015C98.2112 76.9273 99.9584 76.9299 101.705 76.9017C102.331 76.8915 102.405 77.1543 102.268 77.6703C101.893 79.0859 101.551 80.5105 101.165 81.9231C101.011 82.4841 101.163 82.7069 101.748 82.6841C102.372 82.6597 102.997 82.6786 103.79 82.6786Z" fill="white"/>
<path d="M71.6437 115.804C77.9788 115.804 84.314 115.802 90.6491 115.809C91.0168 115.809 91.3994 115.829 91.749 115.929C92.4767 116.139 93.0034 116.945 92.9238 117.633C92.8138 118.583 92.4083 119.084 91.475 119.119C89.4288 119.196 87.3795 119.208 85.3314 119.209C74.4324 119.215 63.5334 119.213 52.6343 119.201C51.9287 119.2 51.1846 119.287 50.6235 118.654C49.819 117.747 50.1759 116.286 51.3306 115.949C51.7245 115.835 52.1547 115.805 52.5684 115.804C58.9268 115.795 65.2853 115.798 71.6437 115.798C71.6437 115.8 71.6437 115.802 71.6437 115.804Z" fill="white"/>
<path d="M63.5386 71.4614C65.2458 71.4514 66.4148 72.6537 66.365 74.3684C66.3086 76.3082 64.4408 78.1323 62.4969 78.146C60.4615 78.1603 59.2343 76.4881 59.762 74.4194C60.1909 72.7385 61.8083 71.4715 63.5386 71.4614Z" fill="white"/>
</svg>
